<svg xmlns="http://www.w3.org/2000/svg" width="682" height="688" fill="none" viewBox="0 0 682 688"><style>:root{color-scheme:light dark}path{fill:#0a0a0a}@media (prefers-color-scheme:dark){path{fill:#fff}}</style><path fill="#0A0A0A" d="M327.963 1.18244C340.361 0.765878 357.425 0.528639 369.765 1.35092C421.647 4.99067 472.061 20.1687 517.329 45.7772C546.087 62.0886 572.473 84.4184 594.962 108.505C604.302 118.508 603.795 117.203 593.434 125.765C579.475 137.3 565.129 148.442 551.681 160.579C546.913 164.879 540.147 170.123 536.475 175.207C536.942 176.54 537.399 177.878 537.839 179.22C543.49 196.523 522.586 205.857 512.605 191.819C511.893 190.819 511.338 188.442 511.009 187.176C509.887 187.066 508.758 186.982 507.629 186.927C499.882 186.571 490.119 186.984 482.278 187.161L448.339 187.624L383.21 187.734C376.104 187.735 366.627 187.286 359.551 187.961C357.63 188.525 356.686 192.529 355.678 194.254C350.296 203.489 340.412 201.257 330.807 200.767C325.56 207.482 317.28 215.894 311.36 222.38C293.87 241.542 276.32 260.35 259.039 279.737C258.903 286.393 258.793 292.914 258.773 299.572C258.742 309.703 259.777 322.731 258.276 332.555C260.344 333.136 262.327 333.983 264.178 335.073C278.666 343.718 274.969 361.469 258.748 365.144C258.186 369.988 258.412 375.004 258.383 379.898L258.241 403.397C258.24 428.377 258.374 453.784 258.004 478.721C265.375 480.854 272.355 483.75 279.558 486.317C288.692 489.572 297.808 492.599 306.736 496.422C309.56 497.631 313.468 498.158 316.296 499.327C324.412 502.677 335.123 504.733 342.898 508.525C354.435 501.081 357.825 504.135 368.847 508.771C372.308 507.588 375.62 504.964 378.987 503.5C388.481 499.364 396.803 493.633 405.679 488.503L443.169 466.402L525.14 417.725C529.695 415.01 534.993 412.424 539.237 409.77C548.324 404.082 562.089 392.583 571.455 388.24C573.471 384.756 575.695 379.603 569.382 379.599L382.797 379.663C379.03 379.663 350.978 380.063 349.765 379.435C348.592 377.523 349.043 363.488 349.053 360.145C349.123 350.188 349.113 340.231 349.026 330.272C348.992 324.358 348.22 282.663 350.235 280.908C351.25 280.023 352.684 279.784 353.991 279.727C361.96 279.385 370.171 279.857 378.174 279.854L434.726 279.84L581.464 279.649C610.497 279.967 639.827 279.126 668.874 279.737C670.826 279.778 673.769 280.504 675.388 281.533C678.294 285.99 680.79 323.412 680.962 330.821C681.832 357.918 679.752 385.031 674.766 411.681C661.503 477.065 629.862 537.308 583.557 585.337C523.299 648.087 440.807 684.667 353.843 687.197C328.687 687.748 302.209 686.471 277.493 681.446C211.402 668.008 147.326 636.235 100.633 587.037C94.2565 580.319 88.1245 574.984 81.9271 567.731C31.6692 509.14 3.21028 434.979 1.3708 357.807C1.16584 346.986 1.02405 331.289 1.71095 320.705C6.4787 238.985 40.4111 161.687 97.3406 102.861C148.364 50.5791 215.022 16.3286 287.238 5.28771C301.469 3.0836 313.556 1.43886 327.963 1.18244ZM114.379 422.183C119.97 421.286 122.362 421.071 127.591 423.846C130.738 421.027 135.364 414.066 138.762 410.495C142.324 406.756 145.994 402.396 149.625 398.56C151.364 396.722 154.595 391.878 156.545 389.489C168.818 374.157 181.496 359.151 194.564 344.49C197.857 340.859 200.869 336.206 204.312 332.851C207.748 328.336 211.461 324.319 215.195 320.052L233.473 299.431C235.914 296.712 238.106 293.597 240.495 290.873C243.736 287.18 247.674 283.137 251.307 279.815C253.336 272.188 252.855 260.034 252.852 251.835L252.857 207.544C252.851 201.412 252.529 188.238 253.174 182.369C257.167 181.852 268.064 182.335 272.701 182.372C285.873 182.486 299.045 182.483 312.217 182.36C315.377 182.315 318.925 182.386 322.032 181.917C323.366 181.008 325.068 177.831 326.018 176.726C329.136 173.096 333.322 171.061 337.959 170.298C345.864 168.997 351.814 173.083 356.924 178.431L357.613 182.055C370.934 182.426 383.613 182.161 396.887 182.137L457.8 182.101C466.447 182.093 475.102 182.089 483.746 182.135C491.272 182.176 503.235 182.663 510.404 181.447C512.807 178.794 513.993 177.073 516.71 174.603C512.272 169.162 500.91 157.552 495.306 153.281C465.151 130.308 430.916 112.085 393.416 104.906C386.086 103.502 379.047 101.851 371.549 101.263C359.736 100.467 348.65 99.4644 336.743 99.9414C276.927 101.002 219.662 124.359 176.169 165.435C173.669 167.826 170.774 170.088 168.405 172.561C123.891 219.213 99.9597 281.775 101.976 346.224C102.601 370.418 106.667 399.131 114.379 422.183ZM252.964 365.08C240.058 365.077 230.347 347.511 241.401 338.074C244.883 335.102 247.985 334.177 252.274 332.806C252.223 325.703 253.509 292.389 251.646 287.486L251.239 287.114C242.521 296.76 233.56 306.183 225.328 316.226C223.646 318.279 222.112 320.46 220.391 322.488L170.717 380.93C158.277 395.358 145.845 409.756 134.293 424.921C132.333 427.494 135.041 433.437 135.536 437.014C139.597 437.313 145.645 439.997 149.599 441.449C158.506 444.721 167.265 447.956 176.302 450.889C184.627 453.731 193.166 456.082 201.406 458.874L236.667 470.709C241.85 472.426 246.805 474.287 252.063 475.852C253.545 467.464 253 447.489 252.995 437.935L252.964 365.08ZM123.39 447.556C126.259 457.137 134.773 470.319 140.489 478.916C161.585 510.635 190.848 537.181 224.19 555.567C231.639 559.675 239.945 563.549 247.651 567.059C249.408 567.758 251.159 568.473 252.903 569.202C253.267 553.155 252.847 536.102 253.035 519.944C253.15 510.02 253.462 490.475 251.944 481.496C247.208 480.219 242.448 478.378 237.895 476.554C226.739 472.086 215.301 468.603 203.817 465.112C190.249 460.987 177.188 455.457 163.621 451.456C161.947 450.966 160.272 450.489 158.606 449.968C152.331 447.952 146.074 445.88 139.836 443.753C137.493 442.974 133.778 442.05 131.7 441.21C129.415 445.749 128.064 445.661 123.39 447.556ZM257.95 570.724C265.084 574.517 287.139 580.5 295.65 582.334C335.569 590.934 377.68 588.361 416.561 576.14C426.196 573.153 433.412 569.871 442.547 565.692C472.716 551.939 499.54 531.799 521.162 506.664C526.904 499.932 531.157 493.022 536.159 486.044C553.807 461.417 565.734 432.802 571.019 402.991C571.415 400.76 572.729 396.447 572.312 394.428C572.117 394.317 571.811 394.115 571.616 394.061C568.186 396.047 565.311 398.892 561.985 401.109C555.064 405.722 547.978 410.133 540.863 414.439C498.847 440.031 456.49 465.048 413.799 489.491C402.067 496.344 389.828 502.633 378.543 510.114C377.546 510.779 373.501 513.034 372.664 514.441C372.869 521.462 372.452 528.493 364.749 533.039C352.691 540.157 333.669 529.327 340.009 513.853C336.313 511.468 331.38 510.178 327.262 508.492C315.251 503.564 302.881 499.512 290.508 495.595C280.297 492.36 267.987 486.74 257.647 484.496C257.684 490.277 257.437 496.015 257.435 501.807C257.446 513.37 257.566 524.933 257.795 536.492C258.034 546.94 258.505 560.515 257.95 570.724ZM291.397 236.235C300.207 225.443 310.86 215.934 319.542 205.01C321.681 202.318 324.192 200.118 326.259 197.25C324.922 194.35 323.092 190.652 322 187.722L281.424 187.544C274.98 187.55 268.301 187.955 261.878 187.621C260.942 187.573 260.409 187.122 259.701 186.579C258.689 191.867 258.932 212.038 259.018 218.686C259.244 236.101 258.688 254.301 259.037 271.629C261.944 268.14 264.824 264.736 267.836 261.331C270.037 258.842 273.76 256.054 275.65 253.6C280.393 247.442 286.532 242.115 291.397 236.235Z"/></svg>